# Blender 4.3.0
# www.blender.org
mtllib neoncube.mtl
o Cube
v 1.000000 1.510000 -0.498411
v 1.000000 -1.510000 -2.501589
v 1.000000 1.510000 2.501589
v 1.000000 -1.510000 0.498411
v -1.000000 1.510000 -0.498411
v -1.000000 -1.510000 -2.501589
v -1.000000 1.510000 2.501589
v -1.000000 -1.510000 0.498411
vn -0.0000 1.0000 -0.0000
vn -0.0000 -0.5528 0.8333
vn -1.0000 -0.0000 -0.0000
vn -0.0000 -1.0000 -0.0000
vn 1.0000 -0.0000 -0.0000
vn -0.0000 0.5528 -0.8333
vt 0.149950 0.411357
vt 0.148375 0.614837
vt 0.074046 0.613262
vt 0.075620 0.409783
vt 0.077195 0.206310
vt 0.001294 0.408208
vt 0.002869 0.204735
vt 0.592452 0.999976
vt 0.000036 0.999955
vt 0.408140 0.000032
vt 0.999989 -0.000016
vt 0.153098 0.004411
vt 0.151524 0.207884
vt 0.078769 0.002836
vt 0.999999 0.000068
vt 0.592411 0.999831
vt 0.000059 0.999968
vt 0.408710 0.001193
vt 0.225850 0.209458
vt 0.224275 0.412931
s 0
usemtl Material
f 1/1/1 5/2/1 7/3/1 3/4/1
f 4/5/2 3/4/2 7/6/2 8/7/2
f 8/8/3 7/9/3 5/10/3 6/11/3
f 6/12/4 2/13/4 4/5/4 8/14/4
f 2/15/5 1/16/5 3/17/5 4/18/5
f 6/19/6 5/20/6 1/1/6 2/13/6
o NeonCubeType2
v -7.500000 -7.500000 7.500000
v -7.500000 -7.500000 7.500000
v -7.500000 -7.500000 7.500000
v -7.500000 7.500000 7.500000
v -7.500000 7.500000 7.500000
v -7.500000 7.500000 7.500000
v -7.500000 -7.500000 -7.500000
v -7.500000 -7.500000 -7.500000
v -7.500000 -7.500000 -7.500000
v -7.500000 7.500000 -7.500000
v -7.500000 7.500000 -7.500000
v -7.500000 7.500000 -7.500000
v 7.500000 -7.500000 7.500000
v 7.500000 -7.500000 7.500000
v 7.500000 -7.500000 7.500000
v 7.500000 7.500000 7.500000
v 7.500000 7.500000 7.500000
v 7.500000 7.500000 7.500000
v 7.500000 -7.500000 -7.500000
v 7.500000 -7.500000 -7.500000
v 7.500000 -7.500000 -7.500000
v 7.500000 7.500000 -7.500000
v 7.500000 7.500000 -7.500000
v 7.500000 7.500000 -7.500000
vn -1.0000 -0.0000 -0.0000
vn -0.0000 -0.0000 -1.0000
vn 1.0000 -0.0000 -0.0000
vn -0.0000 -0.0000 1.0000
vn -0.0000 -1.0000 -0.0000
vn -0.0000 1.0000 -0.0000
vt 0.375000 0.000000
vt 0.625000 0.000000
vt 0.625000 0.250000
vt 0.375000 0.250000
vt 0.625000 0.500000
vt 0.375000 0.500000
vt 0.625000 0.750000
vt 0.375000 0.750000
vt 0.625000 1.000000
vt 0.375000 1.000000
vt 0.125000 0.500000
vt 0.125000 0.750000
vt 0.875000 0.500000
vt 0.875000 0.750000
s 0
usemtl NeonGreenType2
f 9/21/7 12/22/7 18/23/7
f 9/21/7 18/23/7 15/24/7
f 17/24/8 19/23/8 30/25/8
f 17/24/8 30/25/8 28/26/8
f 29/26/9 32/25/9 26/27/9
f 29/26/9 26/27/9 23/28/9
f 22/28/10 24/27/10 13/29/10
f 22/28/10 13/29/10 11/30/10
f 16/31/11 27/26/11 21/28/11
f 16/31/11 21/28/11 10/32/11
f 31/25/12 20/33/12 14/34/12
f 31/25/12 14/34/12 25/27/12
