# Blender 4.3.0
# www.blender.org
mtllib prism.mtl
o Cube
v 1.000000 1.510000 -0.498411
v 1.000000 -1.510000 -2.501589
v 1.000000 1.510000 2.501589
v 1.000000 -1.510000 0.498411
v -1.000000 1.510000 -0.498411
v -1.000000 -1.510000 -2.501589
v -1.000000 1.510000 2.501589
v -1.000000 -1.510000 0.498411
vn -0.0000 1.0000 -0.0000
vn -0.0000 -0.5528 0.8333
vn -1.0000 -0.0000 -0.0000
vn -0.0000 -1.0000 -0.0000
vn 1.0000 -0.0000 -0.0000
vn -0.0000 0.5528 -0.8333
vt 0.149950 0.411357
vt 0.148375 0.614837
vt 0.074046 0.613262
vt 0.075620 0.409783
vt 0.077195 0.206310
vt 0.001294 0.408208
vt 0.002869 0.204735
vt 0.592452 0.999976
vt 0.000036 0.999955
vt 0.408140 0.000032
vt 0.999989 -0.000016
vt 0.153098 0.004411
vt 0.151524 0.207884
vt 0.078769 0.002836
vt 0.999999 0.000068
vt 0.592411 0.999831
vt 0.000059 0.999968
vt 0.408710 0.001193
vt 0.225850 0.209458
vt 0.224275 0.412931
s 0
usemtl Material
f 1/1/1 5/2/1 7/3/1 3/4/1
f 4/5/2 3/4/2 7/6/2 8/7/2
f 8/8/3 7/9/3 5/10/3 6/11/3
f 6/12/4 2/13/4 4/5/4 8/14/4
f 2/15/5 1/16/5 3/17/5 4/18/5
f 6/19/6 5/20/6 1/1/6 2/13/6
